<?xml version="1.0" encoding="utf-8"?>
<!-- Generator: Adobe Illustrator 28.1.0, SVG Export Plug-In . SVG Version: 6.00 Build 0)  -->
<svg version="1.1" id="Calque_1" xmlns="http://www.w3.org/2000/svg" xmlns:xlink="http://www.w3.org/1999/xlink" x="0px" y="0px"
	 viewBox="0 0 596.7 130.8" style="enable-background:new 0 0 596.7 130.8;" xml:space="preserve">
<style type="text/css">
	.st0{fill:#FFFFFF;stroke:#FFFFFF;stroke-width:3;stroke-miterlimit:10;}
	.st1{fill:#FFFFFF;}
	.st2{fill:#F48D35;}
	.st3{fill:#FFFFFF;stroke:#FFFFFF;stroke-width:2;stroke-miterlimit:10;}
	.st4{fill:#2EADD1;}
	.st5{fill:#91D333;}
	.st6{fill:#5EB5FF;}
	.st7{fill:#1094E9;}
	.st8{fill:#265068;}
	.st9{fill:#7ECCDC;}
	.st10{fill:#4C4C4C;stroke:#4C4C4C;stroke-width:3;stroke-miterlimit:10;}
	.st11{fill:#4C4C4C;}
	.st12{fill:#4C4C4C;stroke:#4C4C4C;stroke-width:2;stroke-miterlimit:10;}
</style>
<g>
	<g>
		<path class="st0" d="M549.3,104.2c-1.1-0.1-2.1-0.6-3-1.3c-1.8-1.4-3-3.8-3.6-7c-0.2-1.4-0.3-2.9-0.3-4.6c0-4.2,0.8-9.4,2.3-15.5
			c1.7-6.6,4.3-14.2,8-22.8c0.2-0.5,0.4-0.9,0.5-1.2l0.1-0.5c-0.2,0-1,0.1-2.5,0.3c-1.5,0.2-3.1,0.4-4.8,0.7
			c-1.7,0.3-3.2,0.5-4.4,0.7c-1.1,0.2-2,0.4-2.6,0.4c-0.6,0-1-0.1-1.3-0.3c-0.7-0.3-1.1-0.8-1.5-1.5c-0.1-0.2-0.1-0.4-0.1-0.5
			c0-0.1,0-0.3,0-0.3v-0.4c0-1.2,0.5-2,1.6-2.5c0.2-0.1,0.4-0.2,0.6-0.2c0.2-0.1,0.5-0.1,0.9-0.2c0.4-0.1,0.9-0.2,1.5-0.2
			c4.7-0.8,9.2-1.4,13.5-1.9c0.5,0,1-0.1,1.3-0.1c0.4,0,0.6-0.1,0.6-0.1c0,0,0.2-0.2,0.4-0.6c0.2-0.4,0.4-0.9,0.7-1.5l0.3-0.6
			c0.8-1.7,1.8-3.7,2.9-6s2-4,2.6-5.1c0.6-1,1.2-2.1,1.8-3.1c0.6-1.1,1.1-1.8,1.4-2.1c0.8-0.9,1.7-1.4,2.5-1.4
			c0.6,0,1.1,0.2,1.8,0.7c0.5,0.5,0.8,1.1,0.8,1.8v0.3c0,0.3,0,0.6-0.1,1.1c-0.1,0.5-0.3,1-0.5,1.5s-0.4,0.8-0.6,1
			c0,0.1-0.1,0.2-0.2,0.4c-0.1,0.2-0.2,0.4-0.4,0.6c-0.3,0.5-0.7,1.4-1.4,2.7c-0.6,1.3-1.3,2.8-2,4.3c-0.7,1.5-1.3,2.8-1.9,4
			c-0.5,1.1-0.8,1.7-0.8,1.8l0.7-0.1c0.4,0,1,0,1.6-0.1c2.1-0.1,3.9-0.2,5.4-0.3c1.5,0,3.5-0.1,5.8-0.1c1.8,0,3.1,0,4.1,0
			c0.9,0,1.6,0,2,0.1c0.4,0.1,0.7,0.2,0.9,0.3c0.4,0.3,0.7,0.6,0.9,1c0.2,0.4,0.3,0.7,0.3,1.1c0,0.1,0,0.3-0.1,0.4
			c0,0.5-0.2,1-0.6,1.4c-0.4,0.4-0.8,0.7-1.3,0.8c-0.1,0-0.5,0.1-1.2,0.1c-0.7,0-1.6,0.1-2.6,0.1c-6.4,0.2-12.4,0.6-17.7,1.2
			l-1.1,0.1l-0.8,2.1c-5.6,13-9,24.4-10.3,34.3c-0.2,1.9-0.4,3.6-0.4,5.1c0,2.2,0.3,4,0.8,5.3c0.2,0.4,0.4,0.7,0.6,0.8
			c0.2,0.1,0.4,0.2,0.7,0.2c1.2,0,3.2-1.3,6-3.8c2.1-1.8,4.7-4.4,7.7-7.7c3.1-3.3,5.8-6.4,8.2-9.4c0.4-0.6,0.8-1,1.1-1.3
			c0.3-0.3,0.5-0.5,0.7-0.7c0.2-0.1,0.3-0.2,0.5-0.3c0.2-0.1,0.5-0.1,0.9-0.1s0.7,0,0.9,0.1c0.6,0.3,1,0.6,1.2,1.1
			c0.2,0.4,0.3,0.8,0.3,1.2c0,0.3,0,0.6-0.1,0.8c-0.3,0.8-2.2,3.3-5.8,7.6c-6.8,8.1-12,13.4-15.8,16c-2.2,1.5-4.3,2.2-6.2,2.2
			C550.1,104.3,549.7,104.3,549.3,104.2z"/>
	</g>
	<g>
		<path class="st1" d="M317.6,65l10.7-5.1c-3.2-6.4-9.4-13-21.5-13c-0.9,0-1.8,0-2.7,0.1l-5.5,13.8c2.2-1.9,5.1-3,8.2-3
			C311.9,57.9,316,61.1,317.6,65z M306.9,85.9c-7.2,0-12.6-5.5-13.1-12.9l-6.3,15.9c4.7,5.1,11.6,8,19.4,8c12,0,18.3-6.7,21.5-13
			l-10.7-5.1C316,82.7,311.9,85.9,306.9,85.9z"/>
		<path class="st1" d="M331.1,78.5c0-9.9,7.2-18.3,19.1-18.3c12,0,19.1,8.5,19.1,18.3s-7.1,18.4-19.1,18.4
			C338.3,96.9,331.1,88.4,331.1,78.5z M357.8,78.5c0-4.6-2.8-8.5-7.7-8.5c-4.9,0-7.5,3.8-7.5,8.5c0,4.7,2.7,8.6,7.5,8.6
			C355.1,87.1,357.8,83.2,357.8,78.5z"/>
		<path class="st1" d="M398.9,75.8c0-4.3-2.2-5.8-5.7-5.8c-3.3,0-5.5,1.8-6.8,3.4V96h-11.2V61h11.2v4.3c2.1-2.5,6.2-5.1,12.1-5.1
			c8,0,11.6,4.6,11.6,11.1V96h-11.2V75.8z"/>
		<path class="st1" d="M441.8,75.8c0-4.3-2.2-5.8-5.7-5.8c-3.3,0-5.5,1.8-6.8,3.4V96h-11.2V61h11.2v4.3c2.1-2.5,6.2-5.1,12.1-5.1
			c8,0,11.6,4.6,11.6,11.1V96h-11.2V75.8z"/>
		<path class="st1" d="M477.4,60.2c10.4,0,17.9,7.6,17.9,19.5v2.4h-24.9c0.7,3.3,3.7,6.2,8.9,6.2c3.1,0,6.6-1.2,8.6-3l4.7,7
			c-3.5,3.1-9.3,4.6-14.6,4.6c-10.8,0-19.1-7-19.1-18.4C458.8,68.4,466.5,60.2,477.4,60.2z M470.3,74.8h14.4c-0.3-2.5-2.1-6-7.2-6
			C472.6,68.8,470.7,72.3,470.3,74.8z"/>
		<path class="st1" d="M517.7,60.2c7.5,0,12.2,3.3,14.4,6.5l-7.2,6.7c-1.4-2-3.6-3.3-6.6-3.3c-4.6,0-8.2,3.2-8.2,8.5
			s3.6,8.6,8.2,8.6c3,0,5.2-1.5,6.6-3.4l7.2,6.8c-2.1,3-6.8,6.5-14.4,6.5c-10.9,0-19.1-7.4-19.1-18.4
			C498.5,67.6,506.7,60.2,517.7,60.2z"/>
	</g>
	<g>
		<polygon class="st2" points="256.5,120.8 247.1,120.8 291.2,10 300.7,10 		"/>
	</g>
	<g>
		<g>
			<path class="st2" d="M76.3,10.5l-7.9,1c-0.7,0.2-1,0.7-1,1.2V20c0,0.7,0.5,1.2,1.2,1.2h8.1c0.7,0,1.2-0.5,1.2-1.2v-8.2
				c0-0.3-0.2-0.7-0.3-1C77.3,10.4,76.6,10.5,76.3,10.5L76.3,10.5z"/>
		</g>
		<g>
			<g>
				<path class="st2" d="M52.4,41.9c0,3.4-0.3,6.7-1,9.4c-0.7,2.7-1.7,5-3.4,6.9c-1.5,1.9-3.8,3.3-6.5,4.3c-2.9,1-6.5,1.5-11,1.5
					h-10V20.5h10c4.5,0,8.1,0.5,11,1.5c2.7,1,5,2.4,6.7,4.1c1.5,1.9,2.7,4.1,3.4,6.7C52.1,35.4,52.4,38.5,52.4,41.9L52.4,41.9z
					 M30.8,10.7H17.9c-0.3,0-0.7,0.2-0.9,0.3l-6.7,6.9c-0.2,0.2-0.3,0.5-0.3,0.9v54.1c0,0.7,0.5,1.2,1.2,1.2h19.4
					c21.6,0,32.6-10.8,32.6-32.1C63.2,21.2,52.2,10.7,30.8,10.7L30.8,10.7z"/>
			</g>
			<g>
				<path class="st2" d="M76.1,27.2H68c-0.7,0-1.2,0.5-1.2,1.2v44.3c0,0.7,0.5,1.2,1.2,1.2h8.1c0.7,0,1.2-0.5,1.2-1.2V28.4
					C77.3,27.7,76.8,27.2,76.1,27.2L76.1,27.2z"/>
			</g>
			<g>
				<path class="st2" d="M218.6,65.6c-0.3-0.2-0.7-0.3-1-0.2c-0.5,0.2-1.2,0.2-1.7,0.2c-1,0-2.4,0.2-3.4-0.2c-0.3,0-0.5-0.2-0.7-0.5
					c-0.2-0.2-0.3-0.7-0.5-1.7c-0.2-0.9-0.3-1.9-0.3-3.4v-24h5.8c0.7,0,1.2-0.5,1.2-1.2v-6c0-0.7-0.5-1.2-1.2-1.2h-5.8v-9.4
					c0-0.3-0.2-0.7-0.3-0.9c-0.2-0.2-0.5-0.3-0.9-0.3h-7.9c-0.7,0-1.2,0.5-1.2,1.2v9.6h-4.1c-0.7,0-1.2,0.5-1.2,1.2v5.8
					c0,0.7,0.5,1.2,1.2,1.2h4.1v23.7c0,2.1,0,4.1,0.2,5.8c0.2,1.9,0.7,3.4,1.4,4.8c0.9,1.4,2.1,2.4,3.8,3.1c1.5,0.7,3.6,1,6.4,1
					c1,0,2.1,0,3.1-0.2c1,0,1.9-0.2,2.7-0.3c0.5-0.2,1-0.7,1-1.2v-5.8C219.1,66.3,218.9,66,218.6,65.6L218.6,65.6z"/>
			</g>
			<g>
				<path class="st2" d="M166.6,39c1-1.2,2.1-2.2,3.4-2.7c2.2-1,5.1-1.4,7.7-0.5c1,0.3,1.9,0.7,2.6,1.4c0.7,0.5,1.4,1.2,1.7,2.1
					c0.5,0.9,0.7,1.7,0.9,2.9c0,0.7,0.5,1.2,1.2,1.2h7.7c0.3,0,0.7-0.2,1-0.3c0.3-0.2,0.3-0.7,0.3-1c-0.3-2.2-0.9-4.5-1.9-6.2
					c-1-1.9-2.4-3.4-3.9-4.8c-1.5-1.2-3.6-2.2-5.7-2.9c-4.8-1.5-11-1.4-15.8,0.5c-2.6,1-5,2.6-6.9,4.6s-3.4,4.5-4.5,7.4
					c-1,2.9-1.5,6.4-1.5,10.1s0.5,7.2,1.5,10.1c1,2.9,2.6,5.5,4.5,7.4c1.9,2.1,4.1,3.6,6.9,4.6c2.6,1,5.5,1.5,8.6,1.5
					c2.4,0,4.6-0.3,6.7-0.9c2.1-0.7,4.1-1.5,5.7-2.9c1.7-1.2,3.1-2.9,4.1-4.8c1-1.9,1.7-4.1,2.1-6.5c0-0.3,0-0.7-0.3-1
					c-0.3-0.3-0.5-0.3-1-0.3h-7.7c-0.7,0-1.2,0.5-1.2,1.2c0,1.2-0.3,2.2-0.9,3.1s-1,1.5-1.7,2.1c-0.7,0.5-1.5,1-2.6,1.2
					c-1,0.3-2.1,0.3-3.3,0.3c-3.4,0-6.2-1.2-8.1-3.8c-2.1-2.6-3.1-6.4-3.1-11.5c0-2.6,0.3-4.8,0.9-6.7
					C164.7,41.8,165.5,40.2,166.6,39L166.6,39z"/>
			</g>
			<g>
				<path class="st2" d="M107.3,36.3v-7.7c0-0.5-0.3-1-1-1.2c-0.7-0.2-1.4-0.3-2.1-0.3c-4.5-0.3-8.6,1-12,4.6v-2.6
					c0-0.7-0.5-1.2-1.2-1.2h-7.9c-0.7,0-1.2,0.5-1.2,1.2v43.8c0,0.7,0.5,1.2,1.2,1.2H91c0.7,0,1.2-0.5,1.2-1.2V42.3
					c2.6-3.6,5.5-5.3,8.9-5.3c1.9,0,3.3,0.2,4.5,0.5c0.3,0.2,0.9,0,1-0.2C107,37.1,107.3,36.6,107.3,36.3L107.3,36.3z"/>
			</g>
			<g>
				<path class="st2" d="M117.5,45.2c0.3-1.4,0.7-2.6,1.2-3.8c0.7-1.4,1.5-2.6,2.4-3.6c0.9-0.9,2.1-1.5,3.1-2.1
					c1.2-0.5,2.4-0.7,3.8-0.7c2.9,0,5.3,0.9,7.2,2.7c1.7,1.5,2.9,4.1,3.6,7.2L117.5,45.2L117.5,45.2z M143.6,33.2
					c-1.9-2.1-4.1-3.6-6.9-4.6c-5.1-2.1-12.2-2.1-17.3,0c-2.6,1-4.8,2.6-6.9,4.6c-1.9,2.1-3.4,4.5-4.5,7.4s-1.5,6.2-1.5,9.8
					c0,3.8,0.5,7,1.5,10c1,2.9,2.6,5.3,4.6,7.4c1.9,2.1,4.3,3.6,7,4.6c2.7,1,5.7,1.5,8.9,1.5c2.4,0,4.8-0.3,7-0.9
					c2.2-0.7,4.3-1.5,6-2.7c1.7-1.2,3.3-2.9,4.5-4.6c1.2-1.9,1.9-4.1,2.2-6.5c0-0.3,0-0.7-0.3-1c-0.3-0.3-0.5-0.3-1-0.3h-7.7
					c-0.7,0-1.2,0.5-1.2,1.2c0,1-0.3,2.1-0.9,2.9c-0.5,0.9-1.2,1.5-2.1,2.1c-0.9,0.5-1.9,1-2.9,1.4c-2.7,0.7-5.5,0.5-7.9-0.3
					c-1.4-0.5-2.6-1.2-3.6-2.4c-1-1-1.9-2.4-2.6-4.1c-0.5-1.4-0.9-2.9-1.2-4.8H148c0.7,0,1.2-0.5,1.2-1.2v-1.9c0-3.6-0.5-7-1.5-9.8
					C147,37.6,145.4,35.2,143.6,33.2L143.6,33.2z"/>
			</g>
		</g>
		<g>
			<rect x="10" y="82.3" class="st1" width="3.6" height="38.4"/>
		</g>
		<g>
			<polygon class="st1" points="49,120.7 50,120.7 50,82.3 46.4,82.3 46.4,114.4 20.8,82.3 18.3,82.3 18.3,120.7 21.7,120.7 
				21.7,89.1 46.9,120.7 48.3,120.7 			"/>
		</g>
		<g>
			<path class="st1" d="M68,117.1h-9.3V85.7H68c8.9,0,14.4,5.8,14.6,15.6C82.5,111.3,77,117.1,68,117.1L68,117.1z M68,82.3H55.2
				v38.4H68c11,0,18.2-7.6,18.2-19.2C86.1,89.8,79,82.3,68,82.3L68,82.3z"/>
		</g>
		<g>
			<path class="st1" d="M118.2,102c0,7.2-2.2,16-12.4,16c-10.3,0-12.5-8.8-12.5-16V82.3h-3.6V102c0,12.4,5.8,19.6,16,19.6
				s16-7,16-19.6V82.3h-3.4V102L118.2,102z"/>
		</g>
		<g>
			<path class="st1" d="M139.8,99.8c-6.9,0-10.3-2.4-10.3-7.2c0.2-6.4,7.2-7,10.1-7s7,0.7,9.1,3.8l0.5,0.9l3.4-1.4l-0.9-1.4
				c-2.7-3.9-6.4-5.5-12.2-5.5c-6.4,0-13.7,2.7-13.7,10.5c0,6.9,5,10.6,13.9,10.6c5.1,0,11.3,1.2,11.3,6.9s-6.9,7.2-11,7.2
				c-4.5,0-8.8-1.7-11.7-4.8l-1-0.5l-2.7,2.4l1,1c2.7,2.7,7.4,6,14.2,6c7.2,0,14.6-3.3,14.6-10.8C154.5,103.4,149.2,99.8,139.8,99.8
				L139.8,99.8z"/>
		</g>
		<g>
			<polygon class="st1" points="154.4,85.7 168.3,85.7 168.3,120.7 171.7,120.7 171.7,85.7 185.4,85.7 185.4,82.3 154.4,82.3 			"/>
		</g>
		<g>
			<path class="st1" d="M190.8,85.7h12.4c4.1,0,7.9,3.9,7.9,8.6c0,4.3-2.7,8.6-7.6,8.6h-12.7C190.8,103,190.8,85.7,190.8,85.7z
				 M215.5,120.7l-9.3-14.4c5-1.4,8.4-6.2,8.4-11.8c0-5.8-4.6-12.2-11.3-12.2h-16v38.4h3.6v-14.1h11.5l9.1,14.1H215.5z"/>
		</g>
		<g>
			<polygon class="st1" points="225.5,120.7 228.9,120.7 244.3,82.4 240.3,82.4 233.1,100.3 219.5,82.4 219.5,82.4 215.5,82.4 
				231.9,103.4 			"/>
		</g>
	</g>
</g>
</svg>
